<svg width="22" height="39" viewBox="0 0 22 39" fill="none" xmlns="http://www.w3.org/2000/svg">
<path d="M19 39C18.4704 38.9978 17.9634 38.7856 17.59 38.41L0.59 21.41C0.214412 21.0366 0.00223279 20.5296 0 20C0.0018864 19.4615 0.213525 18.945 0.59 18.56L17.59 1.56C17.9653 1.18472 18.4743 0.973885 19.005 0.973885C19.5357 0.973885 20.0447 1.18472 20.42 1.56C20.7953 1.93528 21.0061 2.44427 21.0061 2.975C21.0061 3.50572 20.7953 4.01472 20.42 4.39L4.81 20L20.38 35.57C20.6631 35.8468 20.8577 36.2014 20.9391 36.5889C21.0205 36.9763 20.9851 37.3793 20.8373 37.7466C20.6895 38.1139 20.436 38.4291 20.1089 38.6522C19.7819 38.8754 19.3959 38.9964 19 39Z" fill="#DFEAE2"/>
</svg>
