<?xml version="1.0" encoding="iso-8859-1"?>
<!-- Generator: Adobe Illustrator 19.0.0, SVG Export Plug-In . SVG Version: 6.00 Build 0)  -->
<svg version="1.1" id="Layer_1" xmlns="http://www.w3.org/2000/svg" xmlns:xlink="http://www.w3.org/1999/xlink" x="0px" y="0px"
	 viewBox="0 0 512 512" style="enable-background:new 0 0 512 512;" xml:space="preserve">
<path style="fill:#32BEA6;" d="M43.768,0v512h424.464V0H43.768z"/>
<g>
	<path style="fill:#FFFFFF;" d="M93.992,142.72V62.096h15.84l32.992,53.84v-53.84h15.12v80.624h-16.336l-32.496-52.576v52.576
		H93.992z"/>
	<path style="fill:#FFFFFF;" d="M175.16,142.72V62.096h59.776v13.648h-43.504v17.872h40.464V107.2h-40.464v21.936h45.04v13.584
		H175.16z"/>
	<path style="fill:#FFFFFF;" d="M261.704,142.72l-19.248-80.624h16.672l12.144,55.376l14.736-55.376h19.344l14.144,56.32
		l12.368-56.32h16.4l-19.568,80.624h-17.264l-16.064-60.272l-16.016,60.272H261.704z"/>
	<path style="fill:#FFFFFF;" d="M352.456,116.48l15.84-1.536c0.96,5.328,2.896,9.216,5.792,11.712s6.848,3.744,11.792,3.744
		c5.248,0,9.2-1.104,11.856-3.328c2.656-2.224,3.984-4.816,3.984-7.776c0-1.904-0.56-3.536-1.664-4.88
		c-1.12-1.344-3.088-2.496-5.856-3.488c-1.904-0.672-6.24-1.84-13.04-3.536c-8.72-2.16-14.848-4.816-18.352-7.968
		c-4.96-4.432-7.424-9.84-7.424-16.224c0-4.112,1.168-7.936,3.504-11.52c2.32-3.584,5.664-6.288,10.048-8.16
		c4.4-1.872,9.68-2.816,15.872-2.816c10.128,0,17.728,2.224,22.848,6.656c5.136,4.432,7.808,10.352,8.064,17.744l-16.288,0.72
		c-0.704-4.144-2.192-7.104-4.496-8.928c-2.288-1.824-5.712-2.72-10.304-2.72c-4.736,0-8.432,0.96-11.104,2.912
		c-1.728,1.248-2.592,2.912-2.592,5.008c0,1.92,0.816,3.552,2.432,4.912c2.048,1.712,7.024,3.52,14.96,5.392
		c7.904,1.872,13.776,3.808,17.552,5.792c3.808,2,6.768,4.736,8.912,8.192s3.216,7.728,3.216,12.832
		c0,4.624-1.28,8.944-3.856,12.992c-2.56,4.032-6.176,7.024-10.88,8.976c-4.704,1.968-10.544,2.944-17.536,2.944
		c-10.192,0-18.016-2.352-23.488-7.056C356.76,132.368,353.512,125.504,352.456,116.48z"/>
	<rect x="93.992" y="199.92" style="fill:#FFFFFF;" width="324" height="16"/>
	<rect x="93.992" y="245.92" style="fill:#FFFFFF;" width="324" height="16"/>
	<rect x="93.992" y="291.92" style="fill:#FFFFFF;" width="324" height="16"/>
	<rect x="93.992" y="337.92" style="fill:#FFFFFF;" width="324" height="16"/>
	<rect x="93.992" y="383.92" style="fill:#FFFFFF;" width="324" height="16"/>
	<rect x="93.992" y="429.92" style="fill:#FFFFFF;" width="324" height="16"/>
</g>

</svg>
